<!-- Generator: Adobe Illustrator 25.0.1, SVG Export Plug-In  -->
<svg version="1.1"
    xmlns="http://www.w3.org/2000/svg"
    xmlns:xlink="http://www.w3.org/1999/xlink" x="0px" y="0px" width="24px" height="24px" viewBox="0 0 24 24" style="overflow:visible;enable-background:new 0 0 24 24;" xml:space="preserve">
    <style type="text/css">
	.st0{fill:url(#SVGID_1_);}
	.st1{fill:url(#SVGID_2_);}
	.st2{fill:url(#SVGID_3_);}
	.st3{fill:url(#SVGID_4_);}
	.st4{fill:url(#SVGID_5_);}
	.st5{fill:url(#SVGID_6_);}
    </style>
    <defs>
    </defs>
    <g>
        <g>
            <radialGradient id="SVGID_1_" cx="6.037" cy="23.8519" r="24.4927" gradientUnits="userSpaceOnUse">
                <stop offset="0" style="stop-color:#FFE088"/>
                <stop offset="0.4391" style="stop-color:#F36C33"/>
                <stop offset="0.6878" style="stop-color:#C52E84"/>
                <stop offset="1" style="stop-color:#4667D8"/>
            </radialGradient>
            <path class="st0" d="M12,0C5.37,0,0,5.37,0,12c0,6.63,5.37,12,12,12s12-5.37,12-12C24,5.37,18.63,0,12,0z M20,17
			c0,1.66-1.34,3-3,3H7c-1.66,0-3-1.34-3-3V7c0-1.66,1.34-3,3-3h10c1.66,0,3,1.34,3,3V17z"/>
        </g>
        <g>
            <radialGradient id="SVGID_2_" cx="6.037" cy="23.8519" r="24.4927" gradientUnits="userSpaceOnUse">
                <stop offset="0" style="stop-color:#FFE088"/>
                <stop offset="0.3832" style="stop-color:#F36C33"/>
                <stop offset="0.6878" style="stop-color:#C52E84"/>
                <stop offset="1" style="stop-color:#4667D8"/>
            </radialGradient>
            <path class="st1" d="M17,5H7C5.9,5,5,5.9,5,7v10c0,1.1,0.9,2,2,2h10c1.1,0,2-0.9,2-2V7C19,5.9,18.1,5,17,5z M12,16
			c-2.21,0-4-1.79-4-4c0-2.21,1.79-4,4-4c2.21,0,4,1.79,4,4C16,14.21,14.21,16,12,16z M16.5,8.5c-0.55,0-1-0.45-1-1
			c0-0.55,0.45-1,1-1s1,0.45,1,1C17.5,8.05,17.05,8.5,16.5,8.5z"/>
        </g>
        <g>
            <radialGradient id="SVGID_3_" cx="6.037" cy="23.8519" r="24.4927" gradientUnits="userSpaceOnUse">
                <stop offset="0" style="stop-color:#FFE088"/>
                <stop offset="0.4391" style="stop-color:#F36C33"/>
                <stop offset="0.6878" style="stop-color:#C52E84"/>
                <stop offset="1" style="stop-color:#4667D8"/>
            </radialGradient>
            <circle class="st2" cx="12" cy="12" r="3"/>
        </g>
    </g>
</svg>
